# xmcd CD database file
#
# Track frame offsets:
#	150
#	20166
#	35489
#	48299
#
# Disc length: 892 seconds
#
# Revision: 0
# Processed by: cddbd v1.5.2PL0 Copyright (c) Steve Scherf et al.
# Submitted via: CDex 1.70beta2
#
DISCID=2d037a04
DTITLE=Stevi Madison - Stevi
DYEAR=2007
DGENRE=Country
TTITLE0=Ready for my Life
TTITLE1=Beautiful
TTITLE2=Just Another
TTITLE3=So Close
EXTD=YEAR: 2007
EXTT0=
EXTT1=
EXTT2=
EXTT3=
PLAYORDER=
